<mxfile host="65bd71144e">
    <diagram id="9vtaB6nMUXsQESLEIAnE" name="Page-1">
        <mxGraphModel dx="829" dy="667" grid="1" gridSize="10" guides="1" tooltips="1" connect="1" arrows="1" fold="1" page="1" pageScale="1" pageWidth="100" pageHeight="100" math="0" shadow="0">
            <root>
                <mxCell id="0"/>
                <mxCell id="1" parent="0"/>
                <mxCell id="22" value="南溪山" style="swimlane;childLayout=stackLayout;resizeParent=1;resizeParentMax=0;startSize=20;html=1;" vertex="1" parent="1">
                    <mxGeometry x="4.547473508864641e-13" width="389.99999999999955" height="800" as="geometry"/>
                </mxCell>
                <mxCell id="23" value="业务环节" style="swimlane;startSize=20;html=1;fillColor=none;fontColor=#333333;strokeColor=#000000;" vertex="1" parent="22">
                    <mxGeometry y="20" width="129.99999999999955" height="780" as="geometry"/>
                </mxCell>
                <mxCell id="28" style="edgeStyle=none;html=1;exitX=0.5;exitY=1;exitDx=0;exitDy=0;entryX=0.5;entryY=0;entryDx=0;entryDy=0;" edge="1" parent="23" source="26" target="27">
                    <mxGeometry relative="1" as="geometry"/>
                </mxCell>
                <mxCell id="26" value="开启业务流程" style="ellipse;whiteSpace=wrap;html=1;fillColor=#f5f5f5;strokeColor=#666666;fontColor=#333333;fontFamily=仿宋;fontStyle=1" vertex="1" parent="23">
                    <mxGeometry x="15" y="35" width="100" height="70" as="geometry"/>
                </mxCell>
                <mxCell id="27" value="业务环节完成" style="rounded=1;whiteSpace=wrap;html=1;fillColor=#f5f5f5;strokeColor=#666666;fontColor=#333333;fontFamily=仿宋;fontStyle=1" vertex="1" parent="23">
                    <mxGeometry x="4.999999999999545" y="140" width="120" height="60" as="geometry"/>
                </mxCell>
                <mxCell id="24" value="自评管理" style="swimlane;startSize=20;html=1;fillColor=none;strokeColor=#000000;" vertex="1" parent="22">
                    <mxGeometry x="129.99999999999955" y="20" width="130" height="780" as="geometry"/>
                </mxCell>
                <mxCell id="29" value="业务环节自评打分" style="rounded=1;whiteSpace=wrap;html=1;fillColor=#fff2cc;strokeColor=#d6b656;fontFamily=仿宋;fontStyle=1" vertex="1" parent="24">
                    <mxGeometry x="5" y="250" width="120" height="60" as="geometry"/>
                </mxCell>
                <mxCell id="25" value="整改管理" style="swimlane;startSize=20;html=1;fillColor=none;strokeColor=#000000;" vertex="1" parent="22">
                    <mxGeometry x="259.99999999999955" y="20" width="130" height="780" as="geometry"/>
                </mxCell>
                <mxCell id="35" value="" style="edgeStyle=orthogonalEdgeStyle;html=1;fillColor=#f8cecc;strokeColor=#b85450;" edge="1" parent="25" source="32" target="34">
                    <mxGeometry relative="1" as="geometry"/>
                </mxCell>
                <mxCell id="32" value="新建其他评价" style="rounded=1;whiteSpace=wrap;html=1;fillColor=#f8cecc;strokeColor=#b85450;fontFamily=仿宋;fontStyle=1" vertex="1" parent="25">
                    <mxGeometry x="5" y="350" width="120" height="60" as="geometry"/>
                </mxCell>
                <mxCell id="37" style="edgeStyle=orthogonalEdgeStyle;html=1;exitX=0.5;exitY=1;exitDx=0;exitDy=0;entryX=0.5;entryY=0;entryDx=0;entryDy=0;fillColor=#f8cecc;strokeColor=#b85450;" edge="1" parent="25" source="34" target="36">
                    <mxGeometry relative="1" as="geometry"/>
                </mxCell>
                <mxCell id="34" value="提交其他评价" style="whiteSpace=wrap;html=1;rounded=1;fillColor=#f8cecc;strokeColor=#b85450;fontFamily=仿宋;fontStyle=1" vertex="1" parent="25">
                    <mxGeometry x="5" y="450" width="120" height="60" as="geometry"/>
                </mxCell>
                <mxCell id="38" style="edgeStyle=orthogonalEdgeStyle;html=1;exitX=1;exitY=0.5;exitDx=0;exitDy=0;entryX=1;entryY=0.5;entryDx=0;entryDy=0;fillColor=#f8cecc;strokeColor=#b85450;" edge="1" parent="25" source="36" target="34">
                    <mxGeometry relative="1" as="geometry">
                        <Array as="points">
                            <mxPoint x="150" y="590"/>
                            <mxPoint x="150" y="480"/>
                        </Array>
                    </mxGeometry>
                </mxCell>
                <mxCell id="39" value="未通过" style="edgeLabel;html=1;align=center;verticalAlign=middle;resizable=0;points=[];fontFamily=仿宋;fontStyle=1" vertex="1" connectable="0" parent="38">
                    <mxGeometry x="-0.0784" y="-1" relative="1" as="geometry">
                        <mxPoint as="offset"/>
                    </mxGeometry>
                </mxCell>
                <mxCell id="44" style="edgeStyle=orthogonalEdgeStyle;html=1;exitX=0.5;exitY=1;exitDx=0;exitDy=0;entryX=0.5;entryY=0;entryDx=0;entryDy=0;fillColor=#f8cecc;strokeColor=#b85450;" edge="1" parent="25" source="36" target="43">
                    <mxGeometry relative="1" as="geometry"/>
                </mxCell>
                <mxCell id="45" value="通过" style="edgeLabel;html=1;align=center;verticalAlign=middle;resizable=0;points=[];fontFamily=仿宋;fontStyle=1" vertex="1" connectable="0" parent="44">
                    <mxGeometry x="-0.2833" relative="1" as="geometry">
                        <mxPoint as="offset"/>
                    </mxGeometry>
                </mxCell>
                <mxCell id="36" value="审核" style="rhombus;whiteSpace=wrap;html=1;fillColor=#f8cecc;strokeColor=#b85450;fontFamily=仿宋;fontStyle=1" vertex="1" parent="25">
                    <mxGeometry x="25" y="550" width="80" height="80" as="geometry"/>
                </mxCell>
                <mxCell id="43" value="完成其他评价" style="ellipse;whiteSpace=wrap;html=1;fillColor=#f8cecc;strokeColor=#b85450;fontFamily=仿宋;fontStyle=1" vertex="1" parent="25">
                    <mxGeometry x="5" y="670" width="120" height="80" as="geometry"/>
                </mxCell>
                <mxCell id="31" style="edgeStyle=orthogonalEdgeStyle;html=1;exitX=0.5;exitY=1;exitDx=0;exitDy=0;entryX=0.5;entryY=0;entryDx=0;entryDy=0;" edge="1" parent="22" source="27" target="29">
                    <mxGeometry relative="1" as="geometry"/>
                </mxCell>
                <mxCell id="33" style="edgeStyle=orthogonalEdgeStyle;html=1;exitX=0.5;exitY=1;exitDx=0;exitDy=0;fillColor=#fff2cc;strokeColor=#d6b656;" edge="1" parent="22" source="29" target="32">
                    <mxGeometry relative="1" as="geometry"/>
                </mxCell>
            </root>
        </mxGraphModel>
    </diagram>
</mxfile>